<svg height="200px" width="200px" version="1.1" id="Layer_1" xmlns="http://www.w3.org/2000/svg" xmlns:xlink="http://www.w3.org/1999/xlink" viewBox="0 0 512 512" xml:space="preserve" fill="#000000"><g id="SVGRepo_bgCarrier" stroke-width="0"></g><g id="SVGRepo_tracerCarrier" stroke-linecap="round" stroke-linejoin="round"></g><g id="SVGRepo_iconCarrier"> <path style="fill:#333333;" d="M315,512H197c-24.816,0-44.992-17.92-44.992-39.936V39.936C152.008,17.92,172.2,0,197,0h118 c24.816,0,44.992,17.92,44.992,39.936v432.128C359.992,494.08,339.8,512,315,512z M196.984,32c-7.328,0-12.992,4.272-12.992,7.936 v432.128c0,3.664,5.664,7.936,12.992,7.936h118c7.328,0,12.992-4.272,12.992-7.936V39.936c0-3.664-5.664-7.936-12.992-7.936 C314.984,32,196.984,32,196.984,32z"></path> <g> <ellipse style="fill:#db2e2e;" cx="225.112" cy="192.72" rx="23.248" ry="24.192"></ellipse> <ellipse style="fill:#db2e2e;" cx="225.112" cy="254.592" rx="23.248" ry="24.192"></ellipse> <ellipse style="fill:#db2e2e;" cx="225.112" cy="316.416" rx="23.248" ry="24.192"></ellipse> <ellipse style="fill:#db2e2e;" cx="285.4" cy="192.72" rx="23.248" ry="24.192"></ellipse> <path style="fill:#db2e2e;" d="M285.4,340.608L285.4,340.608c-13.568,0-24.688-11.104-24.688-24.688v-60.864 c0-13.568,11.104-24.688,24.688-24.688l0,0c13.568,0,24.688,11.104,24.688,24.688v60.864 C310.072,329.504,298.968,340.608,285.4,340.608z"></path> </g> <path style="fill:#333333;" d="M266.6,75.232h-21.232c-4.704,0-8.56-3.856-8.56-8.56v-0.336c0-4.704,3.856-8.56,8.56-8.56H266.6 c4.704,0,8.56,3.856,8.56,8.56v0.352C275.16,71.392,271.304,75.232,266.6,75.232z"></path> </g></svg>